<?xml version="1.0" encoding="utf-8"?>
<!-- Svg Vector Icons : http://www.onlinewebfonts.com/icon -->
<!DOCTYPE svg PUBLIC "-//W3C//DTD SVG 1.1//EN" "http://www.w3.org/Graphics/SVG/1.1/DTD/svg11.dtd">
<svg version="1.1" xmlns="http://www.w3.org/2000/svg" xmlns:xlink="http://www.w3.org/1999/xlink" x="0px" y="0px" viewBox="0 0 1000 1000" enable-background="new 0 0 1000 1000" xml:space="preserve">
<metadata> Svg Vector Icons : http://www.onlinewebfonts.com/icon </metadata>
<g><g transform="translate(0.000000,467.000000) scale(0.100000,-0.100000)"><path fill="#fff" d="M9570.3,4150.9c-80.1-41-2219.6-1148.9-4755.7-2463.8C1727.4,88.8,185.8-720.1,148.6-759.2c-46.9-48.8-54.7-70.3-44.9-121.1c5.9-33.2,31.3-78.2,56.7-99.6c25.4-23.4,848-318.5,1924.6-693.6l1879.6-652.6v-1225.1v-1227.1l46.9-52.7c52.8-62.5,160.2-74.3,218.8-27.4c17.6,15.6,324.3,465,678,996.5c353.7,531.5,646.7,969.1,648.7,973c3.9,3.9,627.2-209.1,1387.3-472.8c760.1-263.8,1397-480.6,1416.6-480.6c21.5,0,60.6,19.5,89.9,44.9c48.8,43,68.4,142.6,762,3948.8c668.2,3677.2,707.3,3907.8,681.9,3970.3c-25.4,60.6-89.9,105.5-154.4,105.5C9726.6,4227.1,9650.4,4193.9,9570.3,4150.9z M9433.5,3275.6c-17.6-105.5-300.9-1656.9-625.2-3448.6c-326.3-1793.7-599.8-3259.1-609.6-3259.1c-27.4,0-3735.8,1291.5-3747.5,1305.2c-7.8,7.8,623.3,721,1400.9,1586.6c779.6,865.6,1905,2120,2504.9,2788.2c597.9,668.2,1094.2,1215.3,1100,1217.3C9464.7,3465.1,9453,3379.1,9433.5,3275.6z M8923.5,3392.8c-27.3-31.3-633-705.3-1346.2-1500.6C6864.1,1097,5783.6-104.7,5179.9-778.8l-1100-1225.1l-414.2,142.6C1825.1-1224.2,748.5-847.1,734.8-835.4c-7.8,7.8,1789.8,949.6,3995.7,2092.6c2205.9,1143,4056.2,2102.4,4109,2133.6C8962.6,3459.2,8988,3459.2,8923.5,3392.8z M4769.6-2605.6c246.2-84,445.5-158.3,445.5-168c0-17.6-894.9-1361.9-908.5-1361.9c-15.6,0-11.7,1680.3,5.9,1680.3C4320.2-2455.2,4525.3-2523.6,4769.6-2605.6z"/></g></g>
</svg>